<?xml version="1.0" encoding="utf-8"?>
<!-- Generator: Adobe Illustrator 27.0.0, SVG Export Plug-In . SVG Version: 6.00 Build 0)  -->
<svg version="1.1" id="Capa_1" xmlns="http://www.w3.org/2000/svg" xmlns:xlink="http://www.w3.org/1999/xlink" x="0px" y="0px"
	 viewBox="0 0 32 32" style="enable-background:new 0 0 32 32;" xml:space="preserve">
<style type="text/css">
	.st0{fill:url(#SVGID_1_);}
	.st1{fill:url(#SVGID_00000154428228414378489330000014892217848791938463_);}
	.st2{fill:url(#SVGID_00000087384670098774909490000017833432507379271318_);}
</style>
<linearGradient id="SVGID_1_" gradientUnits="userSpaceOnUse" x1="16.1803" y1="21.0585" x2="16.1803" y2="14.9385" gradientTransform="matrix(1 0 0 -1 0 34)">
	<stop  offset="0" style="stop-color:#C75463"/>
	<stop  offset="1" style="stop-color:#471400"/>
</linearGradient>
<path class="st0" d="M2.2,16c0-1.7,1.4-3.1,3.1-3.1h21.8c1.7,0,3.1,1.4,3.1,3.1c0,1.7-1.4,3.1-3.1,3.1H5.3C3.6,19.1,2.2,17.7,2.2,16
	z"/>
<linearGradient id="SVGID_00000134970189099706554770000017787659276343134081_" gradientUnits="userSpaceOnUse" x1="2.1953" y1="17.9985" x2="5.4413" y2="17.9985" gradientTransform="matrix(1 0 0 -1 0 34)">
	<stop  offset="0.2" style="stop-color:#71231F"/>
	<stop  offset="1" style="stop-color:#79373B;stop-opacity:0"/>
</linearGradient>
<path style="fill:url(#SVGID_00000134970189099706554770000017787659276343134081_);" d="M2.2,16c0-1.7,1.4-3.1,3.1-3.1h21.8
	c1.7,0,3.1,1.4,3.1,3.1c0,1.7-1.4,3.1-3.1,3.1H5.3C3.6,19.1,2.2,17.7,2.2,16z"/>
<radialGradient id="SVGID_00000010292519327713320200000001272511729366591418_" cx="-1225.5104" cy="698.9703" r="1" gradientTransform="matrix(-3.3379 0 0 3.6839 -4060.9001 -2559.9734)" gradientUnits="userSpaceOnUse">
	<stop  offset="0" style="stop-color:#96515B"/>
	<stop  offset="1" style="stop-color:#895748;stop-opacity:0"/>
</radialGradient>
<path style="fill:url(#SVGID_00000010292519327713320200000001272511729366591418_);" d="M2.2,16c0-1.7,1.4-3.1,3.1-3.1h21.8
	c1.7,0,3.1,1.4,3.1,3.1c0,1.7-1.4,3.1-3.1,3.1H5.3C3.6,19.1,2.2,17.7,2.2,16z"/>
</svg>
